<?xml version="1.0" encoding="utf-8"?>
<svg viewBox="2.7064 0 230.3332 230.3332" width="230.333px" height="230.333px" xmlns="http://www.w3.org/2000/svg">
  <path d="M 22.274 74.248 C 9.972 74.248 0 64.276 0 51.974 L 0 22.274 C 0 9.972 9.972 0 22.274 0 L 51.974 0 C 64.276 0 74.248 9.972 74.248 22.274 L 74.248 51.974 C 74.248 64.276 64.276 74.248 51.974 74.248 L 22.274 74.248 Z" fill="#15803d" fill-rule="nonzero" stroke="none" stroke-width="1" stroke-linecap="butt" stroke-linejoin="miter" stroke-miterlimit="10" stroke-dasharray="" stroke-dashoffset="0" font-family="none" font-weight="none" font-size="none" text-anchor="none" style="mix-blend-mode: normal" data-fill-palette-color="accent" transform="matrix(3.102214888935731, 0, 0, 3.102214888935731, 2.706392970777415, 2.0145751022937475e-7)"/>
  <path d="M 52.179 33.549 L 57.678 33.549 L 57.678 34.099 L 52.179 34.099 L 52.179 33.549 Z M 52.179 35.199 L 57.678 35.199 L 57.678 35.749 L 52.179 35.749 L 52.179 35.199 Z M 52.179 36.849 L 57.678 36.849 L 57.678 37.399 L 52.179 37.399 L 52.179 36.849 Z M 52.247 38.499 L 57.747 38.499 L 57.747 39.049 L 52.247 39.049 L 52.247 38.499 Z M 15.95 34.362 L 17.091 35.553 C 21.075 31.732 27.403 31.782 31.325 35.705 C 32.993 37.368 34.03 39.56 34.257 41.904 C 43.335 42.031 58.778 41.799 58.778 41.799 L 58.778 32.999 C 58.778 31.35 57.629 30.25 56.478 30.25 L 47.779 30.25 L 47.779 22.646 C 47.779 22.289 47.49 22 47.134 22 L 46.427 22 C 46.126 22 45.937 22.326 46.088 22.587 C 46.1 22.608 46.114 22.628 46.129 22.646 L 46.417 22.983 C 46.586 23.182 46.679 23.435 46.679 23.696 L 46.679 30.25 L 32.38 30.25 L 30.497 32.931 C 25.989 30.047 19.952 30.523 15.95 34.362 M 29.701 28.166 C 30.103 27.782 30.447 27.362 30.668 26.959 C 31.227 25.938 30.787 25.414 29.684 25.788 C 28.582 26.161 27.235 27.291 26.676 28.312 C 26.116 29.333 26.556 29.857 27.658 29.484 C 28.113 29.33 28.607 29.048 29.072 28.699 L 31.114 31.133 L 31.627 30.462 L 29.701 28.166 Z M 57.102 46.293 C 58.3 47.49 57.752 49.535 56.117 49.973 C 55.357 50.177 54.547 49.96 53.992 49.404 C 52.807 48.194 53.378 46.155 55.018 45.735 C 55.763 45.544 56.553 45.756 57.102 46.293 M 54.997 44.038 C 52.064 44.463 50.691 47.904 52.525 50.231 C 54.359 52.559 58.026 52.028 59.124 49.275 C 60.048 46.961 58.563 44.392 56.097 44.038 L 56.097 42.349 L 54.997 42.349 L 54.997 44.038 Z M 23.561 33.614 L 23.29 34.328 C 22.943 34.364 22.6 34.422 22.259 34.499 L 21.77 33.912 C 21.363 34.022 20.961 34.159 20.568 34.325 L 20.542 35.087 C 20.228 35.234 19.92 35.4 19.622 35.586 L 18.969 35.19 C 18.622 35.425 18.287 35.685 17.966 35.973 L 18.19 36.703 C 17.939 36.945 17.703 37.201 17.482 37.471 L 16.736 37.308 C 16.478 37.649 16.245 38.005 16.04 38.371 L 16.488 38.99 C 16.328 39.302 16.188 39.622 16.068 39.948 L 15.309 40.036 C 15.178 40.439 15.074 40.852 14.999 41.27 L 15.624 41.708 C 15.574 42.053 15.546 42.401 15.538 42.749 L 14.85 43.079 C 14.856 43.503 14.89 43.927 14.954 44.347 L 15.687 44.559 C 15.752 44.9 15.837 45.239 15.943 45.573 L 15.399 46.108 C 15.542 46.505 15.711 46.894 15.909 47.273 L 16.672 47.235 C 16.843 47.535 17.035 47.827 17.245 48.11 L 16.904 48.793 C 17.17 49.124 17.458 49.436 17.767 49.728 L 18.475 49.445 C 18.74 49.678 19.015 49.893 19.299 50.088 L 19.198 50.845 C 19.557 51.072 19.93 51.274 20.316 51.451 L 20.895 50.952 C 21.219 51.086 21.549 51.199 21.885 51.292 L 22.035 52.039 C 22.448 52.137 22.868 52.207 23.29 52.248 L 23.676 51.589 C 24.024 51.611 24.372 51.611 24.72 51.589 L 25.105 52.248 C 25.527 52.207 25.947 52.138 26.361 52.04 L 26.512 51.292 C 26.848 51.198 27.179 51.085 27.502 50.952 L 28.079 51.451 C 28.465 51.275 28.839 51.072 29.198 50.846 L 29.097 50.087 C 29.384 49.89 29.659 49.675 29.921 49.445 L 30.63 49.728 C 30.938 49.436 31.226 49.124 31.491 48.793 L 31.151 48.11 C 31.362 47.827 31.553 47.535 31.725 47.235 L 32.487 47.272 C 32.685 46.894 32.855 46.505 32.997 46.108 L 32.453 45.573 C 32.559 45.239 32.644 44.901 32.709 44.559 L 33.442 44.347 C 33.505 43.927 33.541 43.503 33.546 43.079 L 32.858 42.749 C 32.85 42.4 32.821 42.053 32.772 41.708 L 33.397 41.269 C 33.322 40.852 33.218 40.44 33.086 40.036 L 32.327 39.948 C 32.207 39.62 32.067 39.3 31.908 38.989 L 32.357 38.371 C 32.149 38.001 31.916 37.646 31.66 37.308 L 30.914 37.471 C 30.693 37.201 30.457 36.945 30.206 36.703 L 30.43 35.973 C 30.113 35.689 29.778 35.428 29.426 35.19 L 28.775 35.586 C 28.478 35.402 28.171 35.235 27.854 35.088 L 27.829 34.324 C 27.437 34.161 27.036 34.023 26.626 33.912 L 26.137 34.499 C 25.797 34.422 25.453 34.365 25.106 34.329 L 24.835 33.614 C 24.411 33.585 23.985 33.586 23.561 33.615 M 27.311 39.788 C 29.706 42.183 28.61 46.272 25.338 47.149 C 23.819 47.556 22.199 47.121 21.088 46.01 C 18.693 43.615 19.789 39.525 23.06 38.649 C 24.579 38.242 26.199 38.676 27.31 39.788 M 26.144 40.954 C 24.647 39.457 22.091 40.142 21.543 42.187 C 21.288 43.135 21.56 44.148 22.254 44.843 C 23.757 46.333 26.31 45.638 26.85 43.591 C 27.098 42.649 26.829 41.646 26.144 40.955" fill="#ffffff" data-fill-palette-color="quaternary" transform="matrix(3.102214888935731, 0, 0, 3.102214888935731, 2.706392970777415, 2.0145751022937475e-7)"/>
</svg>